<svg xmlns="http://www.w3.org/2000/svg" width="239.22" height="72.346" viewBox="0 0 239.22 72.346"><defs><style>.a,.e{fill:#46ba81;}.b,.c{fill:#fff;}.c,.e{font-size:13.97px;}.c{font-family:Helvetica;}.d{letter-spacing:-0.009em;}.e{font-family:'\32 9LTBukra-Bold', '\32 9LT Bukra';font-weight:700;}.f{letter-spacing:-0.019em;}.g{letter-spacing:-0.099em;}.h{letter-spacing:0.02em;}.i{letter-spacing:0.029em;}</style></defs><g transform="translate(-222 -3538.542)"><rect class="a" width="24.132" height="7.764" transform="translate(264.992 3571.467)"/><path class="a" d="M3897.34,3570.868a12.233,12.233,0,1,1,12.269-12.2,12.236,12.236,0,0,1-12.269,12.2m0,7.86a20.081,20.081,0,1,0-20.057-20.009,20.132,20.132,0,0,0,20.057,20.009" transform="translate(-3515.375)"/><path class="a" d="M3860.586,3578.752c8.267,0,14.018-4.481,14.018-11.526,0-5.943-4.026-9.2-10.424-12.221-4.433-2.085-7.356-2.876-7.356-5.176,0-1.989,2.156-3.666,5.056-3.666a5.954,5.954,0,0,1,5.535,3.235l5.727-4c-1.749-4.673-6.11-6.854-11.382-6.854-7.093,0-12.748,4.41-12.748,11.095,0,6.159,4.769,8.531,9.106,10.688,4.05,2.012,8.674,4.241,8.674,7.069,0,2.06-2.444,3.546-6.086,3.546a8.158,8.158,0,0,1-7.5-3.978l-6.206,4.362c2.588,4.792,7.261,7.428,13.587,7.428" transform="translate(-3515.375)"/><path class="b" d="M3824.692,3571.012h-3.547v-23.2h3.475c7.644,0,12.293,4.409,12.293,11.646,0,7.189-4.625,11.55-12.221,11.55m-.048-30.888-11.239.024v38.6h11.239c12.485,0,20.1-7.285,20.1-19.266,0-12.053-7.62-19.386-20.1-19.362" transform="translate(-3515.375)"/><path class="b" d="M3764.765,3539.788v21.638l-22.884-22.261h-.384v39.4h7.764v-21.639l22.932,22.31h.36v-39.443Z" transform="translate(-3515.375)"/><path class="a" d="M3945.452,3547v-7.74H3922.16v38.772h7.764v-15.5h13.323v-7.74h-13.323V3547Z" transform="translate(-3515.375)"/><path class="a" d="M3976.6,3539.357h-26.79v7.692h9.513v30.936h7.788v-30.936h9.489Z" transform="translate(-3515.375)"/><path class="b" d="M3802.84,3579.231l-9.921-22.429-9.9,22.429H3774.8l18-39.587h.287l18.068,39.587Z" transform="translate(-3515.375)"/><text class="c" transform="translate(222 3606.888)"><tspan class="d" x="0" y="0">S</tspan><tspan y="0">oftware</tspan></text><text class="e" transform="translate(292.13 3606.888)"><tspan x="0" y="0">&gt;</tspan></text><text class="c" transform="translate(306.268 3606.888)"><tspan x="0" y="0">In</tspan><tspan class="f" y="0">t</tspan><tspan y="0">ernet</tspan></text><text class="e" transform="translate(369.119 3606.888)"><tspan x="0" y="0">&gt;</tspan></text><text class="c" transform="translate(383.257 3606.888)"><tspan class="g" x="0" y="0">T</tspan><tspan class="h" y="0">e</tspan><tspan y="0">chnol</tspan><tspan class="i" y="0">o</tspan><tspan y="0">gy</tspan></text></g></svg>