<svg xmlns="http://www.w3.org/2000/svg" width="154.58" height="46.667" viewBox="0 0 154.58 46.667"><defs><style>.a,.e{fill:#46ba81;}.b,.c{fill:#fff;}.c,.e{font-size:8.857px;}.c{font-family:Helvetica;}.d{letter-spacing:-0.009em;}.e{font-family:'\32 9LTBukra-Bold', '\32 9LT Bukra';font-weight:700;}.f{letter-spacing:-0.019em;}.g{letter-spacing:-0.099em;}.h{letter-spacing:0.02em;}.i{letter-spacing:0.03em;}</style></defs><g transform="translate(-247.71 -36.235)"><rect class="a" width="15.867" height="5.105" transform="translate(273.268 57.884)"/><path class="a" d="M3865.554,57.49a8.044,8.044,0,1,1,8.067-8.02,8.046,8.046,0,0,1-8.067,8.02m0,5.168A13.2,13.2,0,1,0,3852.366,49.5a13.237,13.237,0,0,0,13.188,13.156" transform="translate(-3515.375)"/><path class="a" d="M3841.388,62.673c5.436,0,9.217-2.945,9.217-7.578,0-3.907-2.647-6.051-6.854-8.035-2.914-1.372-4.837-1.892-4.837-3.4,0-1.308,1.418-2.411,3.325-2.411a3.915,3.915,0,0,1,3.639,2.128l3.766-2.632c-1.15-3.072-4.018-4.506-7.484-4.506-4.664,0-8.382,2.9-8.382,7.3,0,4.048,3.135,5.608,5.987,7.026,2.663,1.323,5.7,2.789,5.7,4.649,0,1.355-1.607,2.331-4,2.331a5.364,5.364,0,0,1-4.932-2.616l-4.081,2.869c1.7,3.15,4.774,4.883,8.934,4.883" transform="translate(-3515.375)"/><path class="b" d="M3817.788,57.584h-2.332V42.333h2.284c5.026,0,8.083,2.9,8.083,7.657,0,4.727-3.041,7.594-8.035,7.594m-.032-20.309-7.389.016V62.673h7.389c8.209,0,13.219-4.789,13.219-12.667,0-7.926-5.01-12.747-13.219-12.731" transform="translate(-3515.375)"/><path class="b" d="M3778.385,37.054V51.282l-15.047-14.638h-.252v25.9h5.1V48.32l15.078,14.669h.237V37.054Z" transform="translate(-3515.375)"/><path class="a" d="M3897.188,41.8V36.708h-15.315V62.2h5.1V52.007h8.76V46.918h-8.76V41.8Z" transform="translate(-3515.375)"/><path class="a" d="M3917.666,36.771h-17.615v5.058h6.255v20.34h5.121V41.829h6.239Z" transform="translate(-3515.375)"/><path class="b" d="M3803.419,62.989,3796.9,48.241l-6.507,14.748h-5.4l11.832-26.029h.189l11.88,26.029Z" transform="translate(-3515.375)"/><text class="c" transform="translate(247.769 80.902)"><tspan class="d" x="0" y="0">S</tspan><tspan y="0">oftware </tspan></text><text class="e" transform="translate(292.277 80.902)"><tspan x="0" y="0">&gt;</tspan></text><text class="c" transform="translate(298.362 80.902)"><tspan x="0" y="0" xml:space="preserve"> In</tspan><tspan class="f" y="0">t</tspan><tspan y="0">ernet </tspan></text><text class="e" transform="translate(341.179 80.902)"><tspan x="0" y="0">&gt;</tspan></text><text class="c" transform="translate(347.264 80.902)"><tspan x="0" y="0"> </tspan><tspan class="g" y="0">T</tspan><tspan class="h" y="0">e</tspan><tspan y="0">chnol</tspan><tspan class="i" y="0">o</tspan><tspan y="0">gy</tspan></text></g></svg>